%TF.GenerationSoftware,KiCad,Pcbnew,9.0.0*%
%TF.CreationDate,2025-04-10T05:16:25-06:00*%
%TF.ProjectId,WakeCircuit,57616b65-4369-4726-9375-69742e6b6963,rev?*%
%TF.SameCoordinates,Original*%
%TF.FileFunction,Legend,Top*%
%TF.FilePolarity,Positive*%
%FSLAX46Y46*%
G04 Gerber Fmt 4.6, Leading zero omitted, Abs format (unit mm)*
G04 Created by KiCad (PCBNEW 9.0.0) date 2025-04-10 05:16:25*
%MOMM*%
%LPD*%
G01*
G04 APERTURE LIST*
%ADD10C,0.150000*%
%ADD11C,0.120000*%
%ADD12C,0.152400*%
G04 APERTURE END LIST*
D10*
X117859580Y-104416666D02*
X117907200Y-104464285D01*
X117907200Y-104464285D02*
X117954819Y-104607142D01*
X117954819Y-104607142D02*
X117954819Y-104702380D01*
X117954819Y-104702380D02*
X117907200Y-104845237D01*
X117907200Y-104845237D02*
X117811961Y-104940475D01*
X117811961Y-104940475D02*
X117716723Y-104988094D01*
X117716723Y-104988094D02*
X117526247Y-105035713D01*
X117526247Y-105035713D02*
X117383390Y-105035713D01*
X117383390Y-105035713D02*
X117192914Y-104988094D01*
X117192914Y-104988094D02*
X117097676Y-104940475D01*
X117097676Y-104940475D02*
X117002438Y-104845237D01*
X117002438Y-104845237D02*
X116954819Y-104702380D01*
X116954819Y-104702380D02*
X116954819Y-104607142D01*
X116954819Y-104607142D02*
X117002438Y-104464285D01*
X117002438Y-104464285D02*
X117050057Y-104416666D01*
X117050057Y-104035713D02*
X117002438Y-103988094D01*
X117002438Y-103988094D02*
X116954819Y-103892856D01*
X116954819Y-103892856D02*
X116954819Y-103654761D01*
X116954819Y-103654761D02*
X117002438Y-103559523D01*
X117002438Y-103559523D02*
X117050057Y-103511904D01*
X117050057Y-103511904D02*
X117145295Y-103464285D01*
X117145295Y-103464285D02*
X117240533Y-103464285D01*
X117240533Y-103464285D02*
X117383390Y-103511904D01*
X117383390Y-103511904D02*
X117954819Y-104083332D01*
X117954819Y-104083332D02*
X117954819Y-103464285D01*
X121359580Y-101166666D02*
X121407200Y-101214285D01*
X121407200Y-101214285D02*
X121454819Y-101357142D01*
X121454819Y-101357142D02*
X121454819Y-101452380D01*
X121454819Y-101452380D02*
X121407200Y-101595237D01*
X121407200Y-101595237D02*
X121311961Y-101690475D01*
X121311961Y-101690475D02*
X121216723Y-101738094D01*
X121216723Y-101738094D02*
X121026247Y-101785713D01*
X121026247Y-101785713D02*
X120883390Y-101785713D01*
X120883390Y-101785713D02*
X120692914Y-101738094D01*
X120692914Y-101738094D02*
X120597676Y-101690475D01*
X120597676Y-101690475D02*
X120502438Y-101595237D01*
X120502438Y-101595237D02*
X120454819Y-101452380D01*
X120454819Y-101452380D02*
X120454819Y-101357142D01*
X120454819Y-101357142D02*
X120502438Y-101214285D01*
X120502438Y-101214285D02*
X120550057Y-101166666D01*
X121454819Y-100214285D02*
X121454819Y-100785713D01*
X121454819Y-100499999D02*
X120454819Y-100499999D01*
X120454819Y-100499999D02*
X120597676Y-100595237D01*
X120597676Y-100595237D02*
X120692914Y-100690475D01*
X120692914Y-100690475D02*
X120740533Y-100785713D01*
X114761905Y-101704819D02*
X114761905Y-100704819D01*
X114761905Y-100704819D02*
X115000000Y-100704819D01*
X115000000Y-100704819D02*
X115142857Y-100752438D01*
X115142857Y-100752438D02*
X115238095Y-100847676D01*
X115238095Y-100847676D02*
X115285714Y-100942914D01*
X115285714Y-100942914D02*
X115333333Y-101133390D01*
X115333333Y-101133390D02*
X115333333Y-101276247D01*
X115333333Y-101276247D02*
X115285714Y-101466723D01*
X115285714Y-101466723D02*
X115238095Y-101561961D01*
X115238095Y-101561961D02*
X115142857Y-101657200D01*
X115142857Y-101657200D02*
X115000000Y-101704819D01*
X115000000Y-101704819D02*
X114761905Y-101704819D01*
X116285714Y-101704819D02*
X115714286Y-101704819D01*
X116000000Y-101704819D02*
X116000000Y-100704819D01*
X116000000Y-100704819D02*
X115904762Y-100847676D01*
X115904762Y-100847676D02*
X115809524Y-100942914D01*
X115809524Y-100942914D02*
X115714286Y-100990533D01*
X93704819Y-113833333D02*
X94419104Y-113833333D01*
X94419104Y-113833333D02*
X94561961Y-113880952D01*
X94561961Y-113880952D02*
X94657200Y-113976190D01*
X94657200Y-113976190D02*
X94704819Y-114119047D01*
X94704819Y-114119047D02*
X94704819Y-114214285D01*
X94704819Y-112833333D02*
X94704819Y-113404761D01*
X94704819Y-113119047D02*
X93704819Y-113119047D01*
X93704819Y-113119047D02*
X93847676Y-113214285D01*
X93847676Y-113214285D02*
X93942914Y-113309523D01*
X93942914Y-113309523D02*
X93990533Y-113404761D01*
X123204819Y-101333333D02*
X123919104Y-101333333D01*
X123919104Y-101333333D02*
X124061961Y-101380952D01*
X124061961Y-101380952D02*
X124157200Y-101476190D01*
X124157200Y-101476190D02*
X124204819Y-101619047D01*
X124204819Y-101619047D02*
X124204819Y-101714285D01*
X123300057Y-100904761D02*
X123252438Y-100857142D01*
X123252438Y-100857142D02*
X123204819Y-100761904D01*
X123204819Y-100761904D02*
X123204819Y-100523809D01*
X123204819Y-100523809D02*
X123252438Y-100428571D01*
X123252438Y-100428571D02*
X123300057Y-100380952D01*
X123300057Y-100380952D02*
X123395295Y-100333333D01*
X123395295Y-100333333D02*
X123490533Y-100333333D01*
X123490533Y-100333333D02*
X123633390Y-100380952D01*
X123633390Y-100380952D02*
X124204819Y-100952380D01*
X124204819Y-100952380D02*
X124204819Y-100333333D01*
X98333333Y-101704819D02*
X98000000Y-101228628D01*
X97761905Y-101704819D02*
X97761905Y-100704819D01*
X97761905Y-100704819D02*
X98142857Y-100704819D01*
X98142857Y-100704819D02*
X98238095Y-100752438D01*
X98238095Y-100752438D02*
X98285714Y-100800057D01*
X98285714Y-100800057D02*
X98333333Y-100895295D01*
X98333333Y-100895295D02*
X98333333Y-101038152D01*
X98333333Y-101038152D02*
X98285714Y-101133390D01*
X98285714Y-101133390D02*
X98238095Y-101181009D01*
X98238095Y-101181009D02*
X98142857Y-101228628D01*
X98142857Y-101228628D02*
X97761905Y-101228628D01*
X99285714Y-101704819D02*
X98714286Y-101704819D01*
X99000000Y-101704819D02*
X99000000Y-100704819D01*
X99000000Y-100704819D02*
X98904762Y-100847676D01*
X98904762Y-100847676D02*
X98809524Y-100942914D01*
X98809524Y-100942914D02*
X98714286Y-100990533D01*
X101738095Y-103254859D02*
X101738095Y-104064382D01*
X101738095Y-104064382D02*
X101785714Y-104159620D01*
X101785714Y-104159620D02*
X101833333Y-104207240D01*
X101833333Y-104207240D02*
X101928571Y-104254859D01*
X101928571Y-104254859D02*
X102119047Y-104254859D01*
X102119047Y-104254859D02*
X102214285Y-104207240D01*
X102214285Y-104207240D02*
X102261904Y-104159620D01*
X102261904Y-104159620D02*
X102309523Y-104064382D01*
X102309523Y-104064382D02*
X102309523Y-103254859D01*
X103309523Y-104254859D02*
X102738095Y-104254859D01*
X103023809Y-104254859D02*
X103023809Y-103254859D01*
X103023809Y-103254859D02*
X102928571Y-103397716D01*
X102928571Y-103397716D02*
X102833333Y-103492954D01*
X102833333Y-103492954D02*
X102738095Y-103540573D01*
X100883550Y-100653899D02*
X100883550Y-100891994D01*
X100645455Y-100796756D02*
X100883550Y-100891994D01*
X100883550Y-100891994D02*
X101121645Y-100796756D01*
X100740693Y-101082470D02*
X100883550Y-100891994D01*
X100883550Y-100891994D02*
X101026407Y-101082470D01*
X96954819Y-112583333D02*
X97669104Y-112583333D01*
X97669104Y-112583333D02*
X97811961Y-112630952D01*
X97811961Y-112630952D02*
X97907200Y-112726190D01*
X97907200Y-112726190D02*
X97954819Y-112869047D01*
X97954819Y-112869047D02*
X97954819Y-112964285D01*
X97288152Y-111678571D02*
X97954819Y-111678571D01*
X96907200Y-111916666D02*
X97621485Y-112154761D01*
X97621485Y-112154761D02*
X97621485Y-111535714D01*
X123083333Y-112954819D02*
X122750000Y-112478628D01*
X122511905Y-112954819D02*
X122511905Y-111954819D01*
X122511905Y-111954819D02*
X122892857Y-111954819D01*
X122892857Y-111954819D02*
X122988095Y-112002438D01*
X122988095Y-112002438D02*
X123035714Y-112050057D01*
X123035714Y-112050057D02*
X123083333Y-112145295D01*
X123083333Y-112145295D02*
X123083333Y-112288152D01*
X123083333Y-112288152D02*
X123035714Y-112383390D01*
X123035714Y-112383390D02*
X122988095Y-112431009D01*
X122988095Y-112431009D02*
X122892857Y-112478628D01*
X122892857Y-112478628D02*
X122511905Y-112478628D01*
X123988095Y-111954819D02*
X123511905Y-111954819D01*
X123511905Y-111954819D02*
X123464286Y-112431009D01*
X123464286Y-112431009D02*
X123511905Y-112383390D01*
X123511905Y-112383390D02*
X123607143Y-112335771D01*
X123607143Y-112335771D02*
X123845238Y-112335771D01*
X123845238Y-112335771D02*
X123940476Y-112383390D01*
X123940476Y-112383390D02*
X123988095Y-112431009D01*
X123988095Y-112431009D02*
X124035714Y-112526247D01*
X124035714Y-112526247D02*
X124035714Y-112764342D01*
X124035714Y-112764342D02*
X123988095Y-112859580D01*
X123988095Y-112859580D02*
X123940476Y-112907200D01*
X123940476Y-112907200D02*
X123845238Y-112954819D01*
X123845238Y-112954819D02*
X123607143Y-112954819D01*
X123607143Y-112954819D02*
X123511905Y-112907200D01*
X123511905Y-112907200D02*
X123464286Y-112859580D01*
X119454819Y-101166666D02*
X118978628Y-101499999D01*
X119454819Y-101738094D02*
X118454819Y-101738094D01*
X118454819Y-101738094D02*
X118454819Y-101357142D01*
X118454819Y-101357142D02*
X118502438Y-101261904D01*
X118502438Y-101261904D02*
X118550057Y-101214285D01*
X118550057Y-101214285D02*
X118645295Y-101166666D01*
X118645295Y-101166666D02*
X118788152Y-101166666D01*
X118788152Y-101166666D02*
X118883390Y-101214285D01*
X118883390Y-101214285D02*
X118931009Y-101261904D01*
X118931009Y-101261904D02*
X118978628Y-101357142D01*
X118978628Y-101357142D02*
X118978628Y-101738094D01*
X118788152Y-100309523D02*
X119454819Y-100309523D01*
X118407200Y-100547618D02*
X119121485Y-100785713D01*
X119121485Y-100785713D02*
X119121485Y-100166666D01*
X123083333Y-109954819D02*
X122750000Y-109478628D01*
X122511905Y-109954819D02*
X122511905Y-108954819D01*
X122511905Y-108954819D02*
X122892857Y-108954819D01*
X122892857Y-108954819D02*
X122988095Y-109002438D01*
X122988095Y-109002438D02*
X123035714Y-109050057D01*
X123035714Y-109050057D02*
X123083333Y-109145295D01*
X123083333Y-109145295D02*
X123083333Y-109288152D01*
X123083333Y-109288152D02*
X123035714Y-109383390D01*
X123035714Y-109383390D02*
X122988095Y-109431009D01*
X122988095Y-109431009D02*
X122892857Y-109478628D01*
X122892857Y-109478628D02*
X122511905Y-109478628D01*
X123416667Y-108954819D02*
X124035714Y-108954819D01*
X124035714Y-108954819D02*
X123702381Y-109335771D01*
X123702381Y-109335771D02*
X123845238Y-109335771D01*
X123845238Y-109335771D02*
X123940476Y-109383390D01*
X123940476Y-109383390D02*
X123988095Y-109431009D01*
X123988095Y-109431009D02*
X124035714Y-109526247D01*
X124035714Y-109526247D02*
X124035714Y-109764342D01*
X124035714Y-109764342D02*
X123988095Y-109859580D01*
X123988095Y-109859580D02*
X123940476Y-109907200D01*
X123940476Y-109907200D02*
X123845238Y-109954819D01*
X123845238Y-109954819D02*
X123559524Y-109954819D01*
X123559524Y-109954819D02*
X123464286Y-109907200D01*
X123464286Y-109907200D02*
X123416667Y-109859580D01*
X113375595Y-112754819D02*
X113375595Y-113564342D01*
X113375595Y-113564342D02*
X113423214Y-113659580D01*
X113423214Y-113659580D02*
X113470833Y-113707200D01*
X113470833Y-113707200D02*
X113566071Y-113754819D01*
X113566071Y-113754819D02*
X113756547Y-113754819D01*
X113756547Y-113754819D02*
X113851785Y-113707200D01*
X113851785Y-113707200D02*
X113899404Y-113659580D01*
X113899404Y-113659580D02*
X113947023Y-113564342D01*
X113947023Y-113564342D02*
X113947023Y-112754819D01*
X114327976Y-112754819D02*
X114947023Y-112754819D01*
X114947023Y-112754819D02*
X114613690Y-113135771D01*
X114613690Y-113135771D02*
X114756547Y-113135771D01*
X114756547Y-113135771D02*
X114851785Y-113183390D01*
X114851785Y-113183390D02*
X114899404Y-113231009D01*
X114899404Y-113231009D02*
X114947023Y-113326247D01*
X114947023Y-113326247D02*
X114947023Y-113564342D01*
X114947023Y-113564342D02*
X114899404Y-113659580D01*
X114899404Y-113659580D02*
X114851785Y-113707200D01*
X114851785Y-113707200D02*
X114756547Y-113754819D01*
X114756547Y-113754819D02*
X114470833Y-113754819D01*
X114470833Y-113754819D02*
X114375595Y-113707200D01*
X114375595Y-113707200D02*
X114327976Y-113659580D01*
X111154761Y-101054819D02*
X110821428Y-100578628D01*
X110583333Y-101054819D02*
X110583333Y-100054819D01*
X110583333Y-100054819D02*
X110964285Y-100054819D01*
X110964285Y-100054819D02*
X111059523Y-100102438D01*
X111059523Y-100102438D02*
X111107142Y-100150057D01*
X111107142Y-100150057D02*
X111154761Y-100245295D01*
X111154761Y-100245295D02*
X111154761Y-100388152D01*
X111154761Y-100388152D02*
X111107142Y-100483390D01*
X111107142Y-100483390D02*
X111059523Y-100531009D01*
X111059523Y-100531009D02*
X110964285Y-100578628D01*
X110964285Y-100578628D02*
X110583333Y-100578628D01*
X111440476Y-100054819D02*
X111773809Y-101054819D01*
X111773809Y-101054819D02*
X112107142Y-100054819D01*
X112964285Y-101054819D02*
X112392857Y-101054819D01*
X112678571Y-101054819D02*
X112678571Y-100054819D01*
X112678571Y-100054819D02*
X112583333Y-100197676D01*
X112583333Y-100197676D02*
X112488095Y-100292914D01*
X112488095Y-100292914D02*
X112392857Y-100340533D01*
D11*
%TO.C,C1*%
X120265000Y-104011252D02*
X120265000Y-103488748D01*
X121735000Y-104011252D02*
X121735000Y-103488748D01*
%TO.C,D1*%
X116710000Y-102250000D02*
X112850000Y-102250000D01*
X116710000Y-104250000D02*
X112850000Y-104250000D01*
X116710000Y-104250000D02*
X116710000Y-102250000D01*
%TO.C,J1*%
X95820000Y-117580000D02*
X123820000Y-117580000D01*
X95820000Y-117580000D02*
X95820000Y-114920000D01*
X123820000Y-117580000D02*
X123820000Y-114920000D01*
X93220000Y-116250000D02*
X93220000Y-114920000D01*
X93220000Y-114920000D02*
X94550000Y-114920000D01*
X95820000Y-114920000D02*
X123820000Y-114920000D01*
%TO.C,J2*%
X100870000Y-97145000D02*
X123790000Y-97145000D01*
X98270000Y-97145000D02*
X99600000Y-97145000D01*
X98270000Y-98475000D02*
X98270000Y-97145000D01*
X123790000Y-99805000D02*
X123790000Y-97145000D01*
X100870000Y-99805000D02*
X100870000Y-97145000D01*
X100870000Y-99805000D02*
X123790000Y-99805000D01*
%TO.C,R2*%
X104515000Y-108977064D02*
X104515000Y-108522936D01*
X105985000Y-108977064D02*
X105985000Y-108522936D01*
%TO.C,C4*%
X101985000Y-109011252D02*
X101985000Y-108488748D01*
X100515000Y-109011252D02*
X100515000Y-108488748D01*
%TO.C,C3*%
X102515000Y-108488748D02*
X102515000Y-109011252D01*
X103985000Y-108488748D02*
X103985000Y-109011252D01*
%TO.C,R1*%
X94977064Y-100265000D02*
X94522936Y-100265000D01*
X94977064Y-101735000D02*
X94522936Y-101735000D01*
D12*
%TO.C,U1*%
X103503300Y-104163260D02*
X103503300Y-103436820D01*
X103503300Y-102149040D02*
X101496700Y-102149040D01*
X101496700Y-105451040D02*
X103503300Y-105451040D01*
D11*
%TO.C,J4*%
X99460000Y-102690000D02*
X91640000Y-102690000D01*
X97860000Y-102690000D02*
X97860000Y-103610000D01*
X91640000Y-102690000D02*
X91640000Y-110810000D01*
X95500000Y-103450000D02*
X93900000Y-103450000D01*
X93900000Y-103450000D02*
X93900000Y-104450000D01*
X99460000Y-103610000D02*
X99460000Y-102690000D01*
X97860000Y-103610000D02*
X99460000Y-103610000D01*
X97860000Y-103890000D02*
X97860000Y-103610000D01*
X97860000Y-103890000D02*
X99075000Y-103890000D01*
X93900000Y-103950000D02*
X91640000Y-103950000D01*
X95500000Y-104450000D02*
X95500000Y-103450000D01*
X93900000Y-104450000D02*
X95500000Y-104450000D01*
X93900000Y-104450000D02*
X91640000Y-104450000D01*
X96000000Y-105250000D02*
X96000000Y-108250000D01*
X91640000Y-105250000D02*
X96000000Y-105250000D01*
X96000000Y-108250000D02*
X91640000Y-108250000D01*
X95500000Y-109050000D02*
X95500000Y-110050000D01*
X93900000Y-109050000D02*
X95500000Y-109050000D01*
X99460000Y-109890000D02*
X97860000Y-109890000D01*
X97860000Y-109890000D02*
X97860000Y-109610000D01*
X95500000Y-110050000D02*
X93900000Y-110050000D01*
X93900000Y-110050000D02*
X93900000Y-109050000D01*
X99460000Y-110810000D02*
X99460000Y-109890000D01*
X97860000Y-110810000D02*
X97860000Y-109890000D01*
X91640000Y-110810000D02*
X99460000Y-110810000D01*
%TO.C,R5*%
X120435436Y-111985000D02*
X120889564Y-111985000D01*
X120435436Y-110515000D02*
X120889564Y-110515000D01*
%TO.C,R4*%
X118265000Y-103977064D02*
X118265000Y-103522936D01*
X119735000Y-103977064D02*
X119735000Y-103522936D01*
%TO.C,C2*%
X116100000Y-104565000D02*
X112190000Y-104565000D01*
X112190000Y-106435000D02*
X116100000Y-106435000D01*
X112190000Y-104565000D02*
X112190000Y-106435000D01*
%TO.C,R3*%
X120272936Y-108735000D02*
X120727064Y-108735000D01*
X120272936Y-107265000D02*
X120727064Y-107265000D01*
%TO.C,U3*%
X117277500Y-112590000D02*
X116797500Y-112590000D01*
X117037500Y-112260000D01*
X117277500Y-112590000D01*
G36*
X117277500Y-112590000D02*
G01*
X116797500Y-112590000D01*
X117037500Y-112260000D01*
X117277500Y-112590000D01*
G37*
X114137500Y-107240000D02*
X111937500Y-107240000D01*
X114137500Y-107240000D02*
X116337500Y-107240000D01*
X114137500Y-112460000D02*
X111937500Y-112460000D01*
X114137500Y-112460000D02*
X116337500Y-112460000D01*
%TO.C,RV1*%
X105580000Y-101730000D02*
X105580000Y-103010000D01*
X105580000Y-101730000D02*
X110420000Y-101730000D01*
X105580000Y-102110000D02*
X105580000Y-102110000D01*
X105580000Y-102110000D02*
X105580000Y-103010000D01*
X105580000Y-102110000D02*
X105580000Y-103010000D01*
X105580000Y-105490000D02*
X105580000Y-106770000D01*
X105580000Y-106770000D02*
X110420000Y-106770000D01*
X110420000Y-101730000D02*
X110420000Y-102210000D01*
X110420000Y-103990000D02*
X110420000Y-104510000D01*
X110420000Y-106290000D02*
X110420000Y-106770000D01*
%TD*%
M02*
