%TF.GenerationSoftware,KiCad,Pcbnew,9.0.0*%
%TF.CreationDate,2025-04-10T05:16:25-06:00*%
%TF.ProjectId,WakeCircuit,57616b65-4369-4726-9375-69742e6b6963,rev?*%
%TF.SameCoordinates,Original*%
%TF.FileFunction,Copper,L2,Bot*%
%TF.FilePolarity,Positive*%
%FSLAX46Y46*%
G04 Gerber Fmt 4.6, Leading zero omitted, Abs format (unit mm)*
G04 Created by KiCad (PCBNEW 9.0.0) date 2025-04-10 05:16:25*
%MOMM*%
%LPD*%
G01*
G04 APERTURE LIST*
G04 Aperture macros list*
%AMRoundRect*
0 Rectangle with rounded corners*
0 $1 Rounding radius*
0 $2 $3 $4 $5 $6 $7 $8 $9 X,Y pos of 4 corners*
0 Add a 4 corners polygon primitive as box body*
4,1,4,$2,$3,$4,$5,$6,$7,$8,$9,$2,$3,0*
0 Add four circle primitives for the rounded corners*
1,1,$1+$1,$2,$3*
1,1,$1+$1,$4,$5*
1,1,$1+$1,$6,$7*
1,1,$1+$1,$8,$9*
0 Add four rect primitives between the rounded corners*
20,1,$1+$1,$2,$3,$4,$5,0*
20,1,$1+$1,$4,$5,$6,$7,0*
20,1,$1+$1,$6,$7,$8,$9,0*
20,1,$1+$1,$8,$9,$2,$3,0*%
G04 Aperture macros list end*
%TA.AperFunction,ComponentPad*%
%ADD10R,1.700000X1.700000*%
%TD*%
%TA.AperFunction,ComponentPad*%
%ADD11O,1.700000X1.700000*%
%TD*%
%TA.AperFunction,ComponentPad*%
%ADD12RoundRect,0.250000X-0.625000X0.350000X-0.625000X-0.350000X0.625000X-0.350000X0.625000X0.350000X0*%
%TD*%
%TA.AperFunction,ComponentPad*%
%ADD13O,1.750000X1.200000*%
%TD*%
%TA.AperFunction,ViaPad*%
%ADD14C,0.600000*%
%TD*%
%TA.AperFunction,Conductor*%
%ADD15C,0.200000*%
%TD*%
G04 APERTURE END LIST*
D10*
%TO.P,J1,1,Pin_1*%
%TO.N,GND*%
X94550000Y-116250000D03*
D11*
%TO.P,J1,2,Pin_2*%
%TO.N,unconnected-(J1-Pin_2-Pad2)*%
X97090000Y-116250000D03*
%TO.P,J1,3,Pin_3*%
%TO.N,GPIO_5*%
X99630000Y-116250000D03*
%TO.P,J1,4,Pin_4*%
%TO.N,unconnected-(J1-Pin_4-Pad4)*%
X102170000Y-116250000D03*
%TO.P,J1,5,Pin_5*%
%TO.N,unconnected-(J1-Pin_5-Pad5)*%
X104710000Y-116250000D03*
%TO.P,J1,6,Pin_6*%
%TO.N,unconnected-(J1-Pin_6-Pad6)*%
X107250000Y-116250000D03*
%TO.P,J1,7,Pin_7*%
%TO.N,unconnected-(J1-Pin_7-Pad7)*%
X109790000Y-116250000D03*
%TO.P,J1,8,Pin_8*%
%TO.N,unconnected-(J1-Pin_8-Pad8)*%
X112330000Y-116250000D03*
%TO.P,J1,9,Pin_9*%
%TO.N,GND*%
X114870000Y-116250000D03*
%TO.P,J1,10,Pin_10*%
%TO.N,unconnected-(J1-Pin_10-Pad10)*%
X117410000Y-116250000D03*
%TO.P,J1,11,Pin_11*%
%TO.N,GPIO_1*%
X119950000Y-116250000D03*
%TO.P,J1,12,Pin_12*%
%TO.N,unconnected-(J1-Pin_12-Pad12)*%
X122490000Y-116250000D03*
%TD*%
%TO.P,J2,10,Pin_10*%
%TO.N,GND*%
X122460000Y-98475000D03*
%TO.P,J2,9,Pin_9*%
%TO.N,unconnected-(J2-Pin_9-Pad9)*%
X119920000Y-98475000D03*
%TO.P,J2,8,Pin_8*%
%TO.N,unconnected-(J2-Pin_8-Pad8)*%
X117380000Y-98475000D03*
%TO.P,J2,7,Pin_7*%
%TO.N,unconnected-(J2-Pin_7-Pad7)*%
X114840000Y-98475000D03*
%TO.P,J2,6,Pin_6*%
%TO.N,GND*%
X112300000Y-98475000D03*
%TO.P,J2,5,Pin_5*%
%TO.N,unconnected-(J2-Pin_5-Pad5)*%
X109760000Y-98475000D03*
%TO.P,J2,4,Pin_4*%
%TO.N,unconnected-(J2-Pin_4-Pad4)*%
X107220000Y-98475000D03*
%TO.P,J2,3,Pin_3*%
%TO.N,unconnected-(J2-Pin_3-Pad3)*%
X104680000Y-98475000D03*
%TO.P,J2,2,Pin_2*%
%TO.N,unconnected-(J2-Pin_2-Pad2)*%
X102140000Y-98475000D03*
D10*
%TO.P,J2,1,Pin_1*%
%TO.N,+3V3*%
X99600000Y-98475000D03*
%TD*%
D12*
%TO.P,J4,1,Pin_1*%
%TO.N,LDR_SIG*%
X98000000Y-104750000D03*
D13*
%TO.P,J4,2,Pin_2*%
%TO.N,GPIO_1*%
X98000000Y-106750000D03*
%TO.P,J4,3,Pin_3*%
%TO.N,+3V3*%
X98000000Y-108750000D03*
%TD*%
D14*
%TO.N,Net-(U1-OUT)*%
X109668626Y-109636971D03*
X108000000Y-106000000D03*
%TO.N,GND*%
X110000000Y-107850000D03*
%TO.N,Net-(D1-A)*%
X105250000Y-110750000D03*
X105250000Y-112750000D03*
%TO.N,GPIO_5*%
X108750000Y-113000000D03*
X109750000Y-111000000D03*
%TO.N,GND*%
X122250000Y-102750000D03*
X122750000Y-111250000D03*
X122500000Y-108000000D03*
X103250000Y-110750000D03*
X101250000Y-110750000D03*
X117250000Y-105500000D03*
X111500000Y-105500000D03*
X97000000Y-101000000D03*
X99172917Y-103821243D03*
X118250000Y-108500000D03*
X118250000Y-107900000D03*
%TD*%
D15*
%TO.N,Net-(U1-OUT)*%
X108000000Y-107968345D02*
X109668626Y-109636971D01*
X108000000Y-106000000D02*
X108000000Y-107968345D01*
%TO.N,Net-(D1-A)*%
X105250000Y-112750000D02*
X105250000Y-110750000D01*
%TO.N,GPIO_5*%
X108750000Y-112000000D02*
X109750000Y-111000000D01*
X108750000Y-113000000D02*
X108750000Y-112000000D01*
%TD*%
%TA.AperFunction,Conductor*%
%TO.N,GND*%
G36*
X98243945Y-97270185D02*
G01*
X98289700Y-97322989D01*
X98299644Y-97392147D01*
X98293088Y-97417833D01*
X98255908Y-97517517D01*
X98249501Y-97577116D01*
X98249500Y-97577135D01*
X98249500Y-99372870D01*
X98249501Y-99372876D01*
X98255908Y-99432483D01*
X98306202Y-99567328D01*
X98306206Y-99567335D01*
X98392452Y-99682544D01*
X98392455Y-99682547D01*
X98507664Y-99768793D01*
X98507671Y-99768797D01*
X98642517Y-99819091D01*
X98642516Y-99819091D01*
X98649444Y-99819835D01*
X98702127Y-99825500D01*
X100497872Y-99825499D01*
X100557483Y-99819091D01*
X100692331Y-99768796D01*
X100807546Y-99682546D01*
X100893796Y-99567331D01*
X100942810Y-99435916D01*
X100984681Y-99379984D01*
X101050145Y-99355566D01*
X101118418Y-99370417D01*
X101146673Y-99391569D01*
X101260213Y-99505109D01*
X101432179Y-99630048D01*
X101432181Y-99630049D01*
X101432184Y-99630051D01*
X101621588Y-99726557D01*
X101823757Y-99792246D01*
X102033713Y-99825500D01*
X102033714Y-99825500D01*
X102246286Y-99825500D01*
X102246287Y-99825500D01*
X102456243Y-99792246D01*
X102658412Y-99726557D01*
X102847816Y-99630051D01*
X102934138Y-99567335D01*
X103019786Y-99505109D01*
X103019788Y-99505106D01*
X103019792Y-99505104D01*
X103170104Y-99354792D01*
X103170106Y-99354788D01*
X103170109Y-99354786D01*
X103295048Y-99182820D01*
X103295047Y-99182820D01*
X103295051Y-99182816D01*
X103299514Y-99174054D01*
X103347488Y-99123259D01*
X103415308Y-99106463D01*
X103481444Y-99128999D01*
X103520486Y-99174056D01*
X103524951Y-99182820D01*
X103649890Y-99354786D01*
X103800213Y-99505109D01*
X103972179Y-99630048D01*
X103972181Y-99630049D01*
X103972184Y-99630051D01*
X104161588Y-99726557D01*
X104363757Y-99792246D01*
X104573713Y-99825500D01*
X104573714Y-99825500D01*
X104786286Y-99825500D01*
X104786287Y-99825500D01*
X104996243Y-99792246D01*
X105198412Y-99726557D01*
X105387816Y-99630051D01*
X105474138Y-99567335D01*
X105559786Y-99505109D01*
X105559788Y-99505106D01*
X105559792Y-99505104D01*
X105710104Y-99354792D01*
X105710106Y-99354788D01*
X105710109Y-99354786D01*
X105835048Y-99182820D01*
X105835047Y-99182820D01*
X105835051Y-99182816D01*
X105839514Y-99174054D01*
X105887488Y-99123259D01*
X105955308Y-99106463D01*
X106021444Y-99128999D01*
X106060486Y-99174056D01*
X106064951Y-99182820D01*
X106189890Y-99354786D01*
X106340213Y-99505109D01*
X106512179Y-99630048D01*
X106512181Y-99630049D01*
X106512184Y-99630051D01*
X106701588Y-99726557D01*
X106903757Y-99792246D01*
X107113713Y-99825500D01*
X107113714Y-99825500D01*
X107326286Y-99825500D01*
X107326287Y-99825500D01*
X107536243Y-99792246D01*
X107738412Y-99726557D01*
X107927816Y-99630051D01*
X108014138Y-99567335D01*
X108099786Y-99505109D01*
X108099788Y-99505106D01*
X108099792Y-99505104D01*
X108250104Y-99354792D01*
X108250106Y-99354788D01*
X108250109Y-99354786D01*
X108375048Y-99182820D01*
X108375047Y-99182820D01*
X108375051Y-99182816D01*
X108379514Y-99174054D01*
X108427488Y-99123259D01*
X108495308Y-99106463D01*
X108561444Y-99128999D01*
X108600486Y-99174056D01*
X108604951Y-99182820D01*
X108729890Y-99354786D01*
X108880213Y-99505109D01*
X109052179Y-99630048D01*
X109052181Y-99630049D01*
X109052184Y-99630051D01*
X109241588Y-99726557D01*
X109443757Y-99792246D01*
X109653713Y-99825500D01*
X109653714Y-99825500D01*
X109866286Y-99825500D01*
X109866287Y-99825500D01*
X110076243Y-99792246D01*
X110278412Y-99726557D01*
X110467816Y-99630051D01*
X110554138Y-99567335D01*
X110639786Y-99505109D01*
X110639788Y-99505106D01*
X110639792Y-99505104D01*
X110790104Y-99354792D01*
X110790106Y-99354788D01*
X110790109Y-99354786D01*
X110875890Y-99236717D01*
X110915051Y-99182816D01*
X110919793Y-99173508D01*
X110967763Y-99122711D01*
X111035583Y-99105911D01*
X111101719Y-99128445D01*
X111140763Y-99173500D01*
X111145373Y-99182547D01*
X111184728Y-99236716D01*
X111817037Y-98604408D01*
X111834075Y-98667993D01*
X111899901Y-98782007D01*
X111992993Y-98875099D01*
X112107007Y-98940925D01*
X112170590Y-98957962D01*
X111538282Y-99590269D01*
X111538282Y-99590270D01*
X111592449Y-99629624D01*
X111781782Y-99726095D01*
X111983870Y-99791757D01*
X112193754Y-99825000D01*
X112406246Y-99825000D01*
X112616127Y-99791757D01*
X112616130Y-99791757D01*
X112818217Y-99726095D01*
X113007554Y-99629622D01*
X113061716Y-99590270D01*
X113061717Y-99590270D01*
X112429408Y-98957962D01*
X112492993Y-98940925D01*
X112607007Y-98875099D01*
X112700099Y-98782007D01*
X112765925Y-98667993D01*
X112782962Y-98604408D01*
X113415270Y-99236717D01*
X113415270Y-99236716D01*
X113454622Y-99182555D01*
X113459232Y-99173507D01*
X113507205Y-99122709D01*
X113575025Y-99105912D01*
X113641161Y-99128447D01*
X113680204Y-99173504D01*
X113684949Y-99182817D01*
X113809890Y-99354786D01*
X113960213Y-99505109D01*
X114132179Y-99630048D01*
X114132181Y-99630049D01*
X114132184Y-99630051D01*
X114321588Y-99726557D01*
X114523757Y-99792246D01*
X114733713Y-99825500D01*
X114733714Y-99825500D01*
X114946286Y-99825500D01*
X114946287Y-99825500D01*
X115156243Y-99792246D01*
X115358412Y-99726557D01*
X115547816Y-99630051D01*
X115634138Y-99567335D01*
X115719786Y-99505109D01*
X115719788Y-99505106D01*
X115719792Y-99505104D01*
X115870104Y-99354792D01*
X115870106Y-99354788D01*
X115870109Y-99354786D01*
X115995048Y-99182820D01*
X115995047Y-99182820D01*
X115995051Y-99182816D01*
X115999514Y-99174054D01*
X116047488Y-99123259D01*
X116115308Y-99106463D01*
X116181444Y-99128999D01*
X116220486Y-99174056D01*
X116224951Y-99182820D01*
X116349890Y-99354786D01*
X116500213Y-99505109D01*
X116672179Y-99630048D01*
X116672181Y-99630049D01*
X116672184Y-99630051D01*
X116861588Y-99726557D01*
X117063757Y-99792246D01*
X117273713Y-99825500D01*
X117273714Y-99825500D01*
X117486286Y-99825500D01*
X117486287Y-99825500D01*
X117696243Y-99792246D01*
X117898412Y-99726557D01*
X118087816Y-99630051D01*
X118174138Y-99567335D01*
X118259786Y-99505109D01*
X118259788Y-99505106D01*
X118259792Y-99505104D01*
X118410104Y-99354792D01*
X118410106Y-99354788D01*
X118410109Y-99354786D01*
X118535048Y-99182820D01*
X118535047Y-99182820D01*
X118535051Y-99182816D01*
X118539514Y-99174054D01*
X118587488Y-99123259D01*
X118655308Y-99106463D01*
X118721444Y-99128999D01*
X118760486Y-99174056D01*
X118764951Y-99182820D01*
X118889890Y-99354786D01*
X119040213Y-99505109D01*
X119212179Y-99630048D01*
X119212181Y-99630049D01*
X119212184Y-99630051D01*
X119401588Y-99726557D01*
X119603757Y-99792246D01*
X119813713Y-99825500D01*
X119813714Y-99825500D01*
X120026286Y-99825500D01*
X120026287Y-99825500D01*
X120236243Y-99792246D01*
X120438412Y-99726557D01*
X120627816Y-99630051D01*
X120714138Y-99567335D01*
X120799786Y-99505109D01*
X120799788Y-99505106D01*
X120799792Y-99505104D01*
X120950104Y-99354792D01*
X120950106Y-99354788D01*
X120950109Y-99354786D01*
X121035890Y-99236717D01*
X121075051Y-99182816D01*
X121079793Y-99173508D01*
X121127763Y-99122711D01*
X121195583Y-99105911D01*
X121261719Y-99128445D01*
X121300763Y-99173500D01*
X121305377Y-99182555D01*
X121430272Y-99354459D01*
X121430276Y-99354464D01*
X121580535Y-99504723D01*
X121580540Y-99504727D01*
X121752442Y-99629620D01*
X121941782Y-99726095D01*
X122143871Y-99791757D01*
X122210000Y-99802231D01*
X122210000Y-98908012D01*
X122267007Y-98940925D01*
X122394174Y-98975000D01*
X122525826Y-98975000D01*
X122652993Y-98940925D01*
X122710000Y-98908012D01*
X122710000Y-99802230D01*
X122776126Y-99791757D01*
X122776129Y-99791757D01*
X122978217Y-99726095D01*
X123167557Y-99629620D01*
X123339459Y-99504727D01*
X123339464Y-99504723D01*
X123489723Y-99354464D01*
X123489727Y-99354459D01*
X123614620Y-99182557D01*
X123711095Y-98993217D01*
X123776757Y-98791129D01*
X123776757Y-98791126D01*
X123787231Y-98725000D01*
X122893012Y-98725000D01*
X122925925Y-98667993D01*
X122960000Y-98540826D01*
X122960000Y-98409174D01*
X122925925Y-98282007D01*
X122893012Y-98225000D01*
X123787231Y-98225000D01*
X123776757Y-98158873D01*
X123776757Y-98158870D01*
X123711095Y-97956782D01*
X123614620Y-97767442D01*
X123489727Y-97595540D01*
X123489723Y-97595535D01*
X123356369Y-97462181D01*
X123322884Y-97400858D01*
X123327868Y-97331166D01*
X123369740Y-97275233D01*
X123435204Y-97250816D01*
X123444050Y-97250500D01*
X124875500Y-97250500D01*
X124942539Y-97270185D01*
X124988294Y-97322989D01*
X124999500Y-97374500D01*
X124999500Y-117375500D01*
X124979815Y-117442539D01*
X124927011Y-117488294D01*
X124875500Y-117499500D01*
X123449029Y-117499500D01*
X123381990Y-117479815D01*
X123336235Y-117427011D01*
X123326291Y-117357853D01*
X123355316Y-117294297D01*
X123368493Y-117281214D01*
X123369789Y-117280106D01*
X123369788Y-117280106D01*
X123369792Y-117280104D01*
X123520104Y-117129792D01*
X123520106Y-117129788D01*
X123520109Y-117129786D01*
X123645048Y-116957820D01*
X123645047Y-116957820D01*
X123645051Y-116957816D01*
X123741557Y-116768412D01*
X123807246Y-116566243D01*
X123840500Y-116356287D01*
X123840500Y-116143713D01*
X123807246Y-115933757D01*
X123741557Y-115731588D01*
X123645051Y-115542184D01*
X123645049Y-115542181D01*
X123645048Y-115542179D01*
X123520109Y-115370213D01*
X123369786Y-115219890D01*
X123197820Y-115094951D01*
X123008414Y-114998444D01*
X123008413Y-114998443D01*
X123008412Y-114998443D01*
X122806243Y-114932754D01*
X122806241Y-114932753D01*
X122806240Y-114932753D01*
X122644957Y-114907208D01*
X122596287Y-114899500D01*
X122383713Y-114899500D01*
X122335042Y-114907208D01*
X122173760Y-114932753D01*
X121971585Y-114998444D01*
X121782179Y-115094951D01*
X121610213Y-115219890D01*
X121459890Y-115370213D01*
X121334949Y-115542182D01*
X121330484Y-115550946D01*
X121282509Y-115601742D01*
X121214688Y-115618536D01*
X121148553Y-115595998D01*
X121109516Y-115550946D01*
X121105050Y-115542182D01*
X120980109Y-115370213D01*
X120829786Y-115219890D01*
X120657820Y-115094951D01*
X120468414Y-114998444D01*
X120468413Y-114998443D01*
X120468412Y-114998443D01*
X120266243Y-114932754D01*
X120266241Y-114932753D01*
X120266240Y-114932753D01*
X120104957Y-114907208D01*
X120056287Y-114899500D01*
X119843713Y-114899500D01*
X119795042Y-114907208D01*
X119633760Y-114932753D01*
X119431585Y-114998444D01*
X119242179Y-115094951D01*
X119070213Y-115219890D01*
X118919890Y-115370213D01*
X118794949Y-115542182D01*
X118790484Y-115550946D01*
X118742509Y-115601742D01*
X118674688Y-115618536D01*
X118608553Y-115595998D01*
X118569516Y-115550946D01*
X118565050Y-115542182D01*
X118440109Y-115370213D01*
X118289786Y-115219890D01*
X118117820Y-115094951D01*
X117928414Y-114998444D01*
X117928413Y-114998443D01*
X117928412Y-114998443D01*
X117726243Y-114932754D01*
X117726241Y-114932753D01*
X117726240Y-114932753D01*
X117564957Y-114907208D01*
X117516287Y-114899500D01*
X117303713Y-114899500D01*
X117255042Y-114907208D01*
X117093760Y-114932753D01*
X116891585Y-114998444D01*
X116702179Y-115094951D01*
X116530213Y-115219890D01*
X116379890Y-115370213D01*
X116254949Y-115542182D01*
X116250202Y-115551499D01*
X116202227Y-115602293D01*
X116134405Y-115619087D01*
X116068271Y-115596548D01*
X116029234Y-115551495D01*
X116024626Y-115542452D01*
X115985270Y-115488282D01*
X115985269Y-115488282D01*
X115352962Y-116120590D01*
X115335925Y-116057007D01*
X115270099Y-115942993D01*
X115177007Y-115849901D01*
X115062993Y-115784075D01*
X114999409Y-115767037D01*
X115631716Y-115134728D01*
X115577550Y-115095375D01*
X115388217Y-114998904D01*
X115186129Y-114933242D01*
X114976246Y-114900000D01*
X114763754Y-114900000D01*
X114553872Y-114933242D01*
X114553869Y-114933242D01*
X114351782Y-114998904D01*
X114162439Y-115095380D01*
X114108282Y-115134727D01*
X114108282Y-115134728D01*
X114740591Y-115767037D01*
X114677007Y-115784075D01*
X114562993Y-115849901D01*
X114469901Y-115942993D01*
X114404075Y-116057007D01*
X114387037Y-116120591D01*
X113754728Y-115488282D01*
X113754727Y-115488282D01*
X113715380Y-115542440D01*
X113715376Y-115542446D01*
X113710760Y-115551505D01*
X113662781Y-115602297D01*
X113594959Y-115619087D01*
X113528826Y-115596543D01*
X113489794Y-115551493D01*
X113485051Y-115542184D01*
X113485049Y-115542181D01*
X113485048Y-115542179D01*
X113360109Y-115370213D01*
X113209786Y-115219890D01*
X113037820Y-115094951D01*
X112848414Y-114998444D01*
X112848413Y-114998443D01*
X112848412Y-114998443D01*
X112646243Y-114932754D01*
X112646241Y-114932753D01*
X112646240Y-114932753D01*
X112484957Y-114907208D01*
X112436287Y-114899500D01*
X112223713Y-114899500D01*
X112175042Y-114907208D01*
X112013760Y-114932753D01*
X111811585Y-114998444D01*
X111622179Y-115094951D01*
X111450213Y-115219890D01*
X111299890Y-115370213D01*
X111174949Y-115542182D01*
X111170484Y-115550946D01*
X111122509Y-115601742D01*
X111054688Y-115618536D01*
X110988553Y-115595998D01*
X110949516Y-115550946D01*
X110945050Y-115542182D01*
X110820109Y-115370213D01*
X110669786Y-115219890D01*
X110497820Y-115094951D01*
X110308414Y-114998444D01*
X110308413Y-114998443D01*
X110308412Y-114998443D01*
X110106243Y-114932754D01*
X110106241Y-114932753D01*
X110106240Y-114932753D01*
X109944957Y-114907208D01*
X109896287Y-114899500D01*
X109683713Y-114899500D01*
X109635042Y-114907208D01*
X109473760Y-114932753D01*
X109271585Y-114998444D01*
X109082179Y-115094951D01*
X108910213Y-115219890D01*
X108759890Y-115370213D01*
X108634949Y-115542182D01*
X108630484Y-115550946D01*
X108582509Y-115601742D01*
X108514688Y-115618536D01*
X108448553Y-115595998D01*
X108409516Y-115550946D01*
X108405050Y-115542182D01*
X108280109Y-115370213D01*
X108129786Y-115219890D01*
X107957820Y-115094951D01*
X107768414Y-114998444D01*
X107768413Y-114998443D01*
X107768412Y-114998443D01*
X107566243Y-114932754D01*
X107566241Y-114932753D01*
X107566240Y-114932753D01*
X107404957Y-114907208D01*
X107356287Y-114899500D01*
X107143713Y-114899500D01*
X107095042Y-114907208D01*
X106933760Y-114932753D01*
X106731585Y-114998444D01*
X106542179Y-115094951D01*
X106370213Y-115219890D01*
X106219890Y-115370213D01*
X106094949Y-115542182D01*
X106090484Y-115550946D01*
X106042509Y-115601742D01*
X105974688Y-115618536D01*
X105908553Y-115595998D01*
X105869516Y-115550946D01*
X105865050Y-115542182D01*
X105740109Y-115370213D01*
X105589786Y-115219890D01*
X105417820Y-115094951D01*
X105228414Y-114998444D01*
X105228413Y-114998443D01*
X105228412Y-114998443D01*
X105026243Y-114932754D01*
X105026241Y-114932753D01*
X105026240Y-114932753D01*
X104864957Y-114907208D01*
X104816287Y-114899500D01*
X104603713Y-114899500D01*
X104555042Y-114907208D01*
X104393760Y-114932753D01*
X104191585Y-114998444D01*
X104002179Y-115094951D01*
X103830213Y-115219890D01*
X103679890Y-115370213D01*
X103554949Y-115542182D01*
X103550484Y-115550946D01*
X103502509Y-115601742D01*
X103434688Y-115618536D01*
X103368553Y-115595998D01*
X103329516Y-115550946D01*
X103325050Y-115542182D01*
X103200109Y-115370213D01*
X103049786Y-115219890D01*
X102877820Y-115094951D01*
X102688414Y-114998444D01*
X102688413Y-114998443D01*
X102688412Y-114998443D01*
X102486243Y-114932754D01*
X102486241Y-114932753D01*
X102486240Y-114932753D01*
X102324957Y-114907208D01*
X102276287Y-114899500D01*
X102063713Y-114899500D01*
X102015042Y-114907208D01*
X101853760Y-114932753D01*
X101651585Y-114998444D01*
X101462179Y-115094951D01*
X101290213Y-115219890D01*
X101139890Y-115370213D01*
X101014949Y-115542182D01*
X101010484Y-115550946D01*
X100962509Y-115601742D01*
X100894688Y-115618536D01*
X100828553Y-115595998D01*
X100789516Y-115550946D01*
X100785050Y-115542182D01*
X100660109Y-115370213D01*
X100509786Y-115219890D01*
X100337820Y-115094951D01*
X100148414Y-114998444D01*
X100148413Y-114998443D01*
X100148412Y-114998443D01*
X99946243Y-114932754D01*
X99946241Y-114932753D01*
X99946240Y-114932753D01*
X99784957Y-114907208D01*
X99736287Y-114899500D01*
X99523713Y-114899500D01*
X99475042Y-114907208D01*
X99313760Y-114932753D01*
X99111585Y-114998444D01*
X98922179Y-115094951D01*
X98750213Y-115219890D01*
X98599890Y-115370213D01*
X98474949Y-115542182D01*
X98470484Y-115550946D01*
X98422509Y-115601742D01*
X98354688Y-115618536D01*
X98288553Y-115595998D01*
X98249516Y-115550946D01*
X98245050Y-115542182D01*
X98120109Y-115370213D01*
X97969786Y-115219890D01*
X97797820Y-115094951D01*
X97608414Y-114998444D01*
X97608413Y-114998443D01*
X97608412Y-114998443D01*
X97406243Y-114932754D01*
X97406241Y-114932753D01*
X97406240Y-114932753D01*
X97244957Y-114907208D01*
X97196287Y-114899500D01*
X96983713Y-114899500D01*
X96935042Y-114907208D01*
X96773760Y-114932753D01*
X96571585Y-114998444D01*
X96382179Y-115094951D01*
X96210215Y-115219889D01*
X96096285Y-115333819D01*
X96034962Y-115367303D01*
X95965270Y-115362319D01*
X95909337Y-115320447D01*
X95892422Y-115289470D01*
X95843354Y-115157913D01*
X95843350Y-115157906D01*
X95757190Y-115042812D01*
X95757187Y-115042809D01*
X95642093Y-114956649D01*
X95642086Y-114956645D01*
X95507379Y-114906403D01*
X95507372Y-114906401D01*
X95447844Y-114900000D01*
X94800000Y-114900000D01*
X94800000Y-115816988D01*
X94742993Y-115784075D01*
X94615826Y-115750000D01*
X94484174Y-115750000D01*
X94357007Y-115784075D01*
X94300000Y-115816988D01*
X94300000Y-114900000D01*
X93652155Y-114900000D01*
X93592627Y-114906401D01*
X93592620Y-114906403D01*
X93457913Y-114956645D01*
X93457906Y-114956649D01*
X93342812Y-115042809D01*
X93342809Y-115042812D01*
X93256649Y-115157906D01*
X93256645Y-115157913D01*
X93206403Y-115292620D01*
X93206401Y-115292627D01*
X93200000Y-115352155D01*
X93200000Y-116000000D01*
X94116988Y-116000000D01*
X94084075Y-116057007D01*
X94050000Y-116184174D01*
X94050000Y-116315826D01*
X94084075Y-116442993D01*
X94116988Y-116500000D01*
X93200000Y-116500000D01*
X93200000Y-117147844D01*
X93206401Y-117207372D01*
X93206403Y-117207379D01*
X93252946Y-117332167D01*
X93257930Y-117401858D01*
X93224445Y-117463182D01*
X93163122Y-117496666D01*
X93136764Y-117499500D01*
X92124500Y-117499500D01*
X92057461Y-117479815D01*
X92011706Y-117427011D01*
X92000500Y-117375500D01*
X92000500Y-110671153D01*
X104449500Y-110671153D01*
X104449500Y-110828846D01*
X104480261Y-110983489D01*
X104480264Y-110983501D01*
X104540602Y-111129172D01*
X104540609Y-111129185D01*
X104628602Y-111260874D01*
X104649480Y-111327551D01*
X104649500Y-111329765D01*
X104649500Y-112170234D01*
X104629815Y-112237273D01*
X104628602Y-112239125D01*
X104540609Y-112370814D01*
X104540602Y-112370827D01*
X104480264Y-112516498D01*
X104480261Y-112516510D01*
X104449500Y-112671153D01*
X104449500Y-112828846D01*
X104480261Y-112983489D01*
X104480264Y-112983501D01*
X104540602Y-113129172D01*
X104540609Y-113129185D01*
X104628210Y-113260288D01*
X104628213Y-113260292D01*
X104739707Y-113371786D01*
X104739711Y-113371789D01*
X104870814Y-113459390D01*
X104870827Y-113459397D01*
X105016498Y-113519735D01*
X105016503Y-113519737D01*
X105171153Y-113550499D01*
X105171156Y-113550500D01*
X105171158Y-113550500D01*
X105328844Y-113550500D01*
X105328845Y-113550499D01*
X105483497Y-113519737D01*
X105629179Y-113459394D01*
X105760289Y-113371789D01*
X105871789Y-113260289D01*
X105959394Y-113129179D01*
X106019737Y-112983497D01*
X106050500Y-112828842D01*
X106050500Y-112671158D01*
X106050500Y-112671155D01*
X106050499Y-112671153D01*
X106019738Y-112516510D01*
X106019737Y-112516503D01*
X106019735Y-112516498D01*
X105959397Y-112370827D01*
X105959390Y-112370814D01*
X105871398Y-112239125D01*
X105850520Y-112172447D01*
X105850500Y-112170234D01*
X105850500Y-111329765D01*
X105870185Y-111262726D01*
X105871398Y-111260874D01*
X105959390Y-111129185D01*
X105959390Y-111129184D01*
X105959394Y-111129179D01*
X106019737Y-110983497D01*
X106050500Y-110828842D01*
X106050500Y-110671158D01*
X106050500Y-110671155D01*
X106050499Y-110671153D01*
X106019738Y-110516510D01*
X106019737Y-110516503D01*
X106019735Y-110516498D01*
X105959397Y-110370827D01*
X105959390Y-110370814D01*
X105871789Y-110239711D01*
X105871786Y-110239707D01*
X105760292Y-110128213D01*
X105760288Y-110128210D01*
X105629185Y-110040609D01*
X105629172Y-110040602D01*
X105483501Y-109980264D01*
X105483489Y-109980261D01*
X105328845Y-109949500D01*
X105328842Y-109949500D01*
X105171158Y-109949500D01*
X105171155Y-109949500D01*
X105016510Y-109980261D01*
X105016498Y-109980264D01*
X104870827Y-110040602D01*
X104870814Y-110040609D01*
X104739711Y-110128210D01*
X104739707Y-110128213D01*
X104628213Y-110239707D01*
X104628210Y-110239711D01*
X104540609Y-110370814D01*
X104540602Y-110370827D01*
X104480264Y-110516498D01*
X104480261Y-110516510D01*
X104449500Y-110671153D01*
X92000500Y-110671153D01*
X92000500Y-104349983D01*
X96624500Y-104349983D01*
X96624500Y-105150001D01*
X96624501Y-105150019D01*
X96635000Y-105252796D01*
X96635001Y-105252799D01*
X96676559Y-105378210D01*
X96690186Y-105419334D01*
X96782288Y-105568656D01*
X96906344Y-105692712D01*
X96970543Y-105732310D01*
X97017268Y-105784258D01*
X97028489Y-105853221D01*
X97000646Y-105917303D01*
X96993128Y-105925530D01*
X96885585Y-106033073D01*
X96783768Y-106173211D01*
X96705128Y-106327552D01*
X96651597Y-106492302D01*
X96624500Y-106663389D01*
X96624500Y-106836611D01*
X96651598Y-107007701D01*
X96705127Y-107172445D01*
X96783768Y-107326788D01*
X96885586Y-107466928D01*
X97008072Y-107589414D01*
X97008078Y-107589418D01*
X97091023Y-107649683D01*
X97133689Y-107705013D01*
X97139667Y-107774626D01*
X97107061Y-107836421D01*
X97091023Y-107850317D01*
X97008078Y-107910581D01*
X97008069Y-107910588D01*
X96885588Y-108033069D01*
X96885588Y-108033070D01*
X96885586Y-108033072D01*
X96875177Y-108047399D01*
X96783768Y-108173211D01*
X96705128Y-108327552D01*
X96651597Y-108492302D01*
X96624500Y-108663389D01*
X96624500Y-108836610D01*
X96638907Y-108927577D01*
X96651598Y-109007701D01*
X96705127Y-109172445D01*
X96783768Y-109326788D01*
X96885586Y-109466928D01*
X97008072Y-109589414D01*
X97148212Y-109691232D01*
X97302555Y-109769873D01*
X97467299Y-109823402D01*
X97638389Y-109850500D01*
X97638390Y-109850500D01*
X98361610Y-109850500D01*
X98361611Y-109850500D01*
X98532701Y-109823402D01*
X98697445Y-109769873D01*
X98851788Y-109691232D01*
X98991928Y-109589414D01*
X99114414Y-109466928D01*
X99216232Y-109326788D01*
X99294873Y-109172445D01*
X99348402Y-109007701D01*
X99375500Y-108836611D01*
X99375500Y-108663389D01*
X99348402Y-108492299D01*
X99294873Y-108327555D01*
X99216232Y-108173212D01*
X99114414Y-108033072D01*
X98991928Y-107910586D01*
X98908975Y-107850317D01*
X98866311Y-107794988D01*
X98860332Y-107725374D01*
X98892938Y-107663579D01*
X98908976Y-107649682D01*
X98991928Y-107589414D01*
X99114414Y-107466928D01*
X99216232Y-107326788D01*
X99294873Y-107172445D01*
X99348402Y-107007701D01*
X99375500Y-106836611D01*
X99375500Y-106663389D01*
X99348402Y-106492299D01*
X99294873Y-106327555D01*
X99216232Y-106173212D01*
X99114414Y-106033072D01*
X99006872Y-105925530D01*
X99004482Y-105921153D01*
X107199500Y-105921153D01*
X107199500Y-106078846D01*
X107230261Y-106233489D01*
X107230264Y-106233501D01*
X107290602Y-106379172D01*
X107290609Y-106379185D01*
X107378602Y-106510874D01*
X107399480Y-106577551D01*
X107399500Y-106579765D01*
X107399500Y-107881675D01*
X107399499Y-107881693D01*
X107399499Y-108047399D01*
X107399498Y-108047399D01*
X107440423Y-108200130D01*
X107469358Y-108250245D01*
X107469359Y-108250249D01*
X107469360Y-108250249D01*
X107519479Y-108337059D01*
X107519481Y-108337062D01*
X107638349Y-108455930D01*
X107638355Y-108455935D01*
X108834051Y-109651631D01*
X108867536Y-109712954D01*
X108867987Y-109715120D01*
X108898887Y-109870462D01*
X108898890Y-109870472D01*
X108959228Y-110016143D01*
X108959235Y-110016156D01*
X109046836Y-110147259D01*
X109046839Y-110147263D01*
X109158333Y-110258757D01*
X109162876Y-110262485D01*
X109202213Y-110320229D01*
X109204087Y-110390073D01*
X109171898Y-110446022D01*
X109128214Y-110489706D01*
X109128210Y-110489711D01*
X109040609Y-110620814D01*
X109040602Y-110620827D01*
X108980264Y-110766498D01*
X108980261Y-110766508D01*
X108949362Y-110921848D01*
X108916977Y-110983759D01*
X108915426Y-110985337D01*
X108381286Y-111519478D01*
X108269481Y-111631282D01*
X108269479Y-111631285D01*
X108224385Y-111709392D01*
X108224384Y-111709393D01*
X108190423Y-111768214D01*
X108190423Y-111768215D01*
X108149499Y-111920943D01*
X108149499Y-111920945D01*
X108149499Y-112089046D01*
X108149500Y-112089059D01*
X108149500Y-112420234D01*
X108129815Y-112487273D01*
X108128602Y-112489125D01*
X108040609Y-112620814D01*
X108040602Y-112620827D01*
X107980264Y-112766498D01*
X107980261Y-112766510D01*
X107949500Y-112921153D01*
X107949500Y-113078846D01*
X107980261Y-113233489D01*
X107980264Y-113233501D01*
X108040602Y-113379172D01*
X108040609Y-113379185D01*
X108128210Y-113510288D01*
X108128213Y-113510292D01*
X108239707Y-113621786D01*
X108239711Y-113621789D01*
X108370814Y-113709390D01*
X108370827Y-113709397D01*
X108516498Y-113769735D01*
X108516503Y-113769737D01*
X108671153Y-113800499D01*
X108671156Y-113800500D01*
X108671158Y-113800500D01*
X108828844Y-113800500D01*
X108828845Y-113800499D01*
X108983497Y-113769737D01*
X109129179Y-113709394D01*
X109260289Y-113621789D01*
X109371789Y-113510289D01*
X109459394Y-113379179D01*
X109519737Y-113233497D01*
X109550500Y-113078842D01*
X109550500Y-112921158D01*
X109550500Y-112921155D01*
X109550499Y-112921153D01*
X109519738Y-112766510D01*
X109519737Y-112766503D01*
X109480242Y-112671153D01*
X109459397Y-112620827D01*
X109459390Y-112620814D01*
X109371398Y-112489125D01*
X109365747Y-112471078D01*
X109355523Y-112455169D01*
X109351071Y-112424207D01*
X109350520Y-112422447D01*
X109350500Y-112420234D01*
X109350500Y-112300097D01*
X109370185Y-112233058D01*
X109386819Y-112212416D01*
X109520178Y-112079057D01*
X109764665Y-111834570D01*
X109825984Y-111801088D01*
X109828151Y-111800637D01*
X109828840Y-111800500D01*
X109828842Y-111800500D01*
X109983497Y-111769737D01*
X110129179Y-111709394D01*
X110260289Y-111621789D01*
X110371789Y-111510289D01*
X110459394Y-111379179D01*
X110519737Y-111233497D01*
X110550500Y-111078842D01*
X110550500Y-110921158D01*
X110550500Y-110921155D01*
X110550499Y-110921153D01*
X110519738Y-110766510D01*
X110519738Y-110766508D01*
X110519737Y-110766503D01*
X110480242Y-110671153D01*
X110459397Y-110620827D01*
X110459390Y-110620814D01*
X110371789Y-110489711D01*
X110371786Y-110489707D01*
X110260291Y-110378212D01*
X110255748Y-110374484D01*
X110216411Y-110316740D01*
X110214538Y-110246895D01*
X110246729Y-110190946D01*
X110290412Y-110147263D01*
X110290415Y-110147260D01*
X110378020Y-110016150D01*
X110438363Y-109870468D01*
X110469126Y-109715813D01*
X110469126Y-109558129D01*
X110469126Y-109558126D01*
X110469125Y-109558124D01*
X110438364Y-109403481D01*
X110438363Y-109403474D01*
X110406599Y-109326788D01*
X110378023Y-109257798D01*
X110378016Y-109257785D01*
X110290415Y-109126682D01*
X110290412Y-109126678D01*
X110178918Y-109015184D01*
X110178914Y-109015181D01*
X110047811Y-108927580D01*
X110047798Y-108927573D01*
X109902127Y-108867235D01*
X109902117Y-108867232D01*
X109746777Y-108836333D01*
X109684867Y-108803948D01*
X109683288Y-108802397D01*
X108636819Y-107755928D01*
X108603334Y-107694605D01*
X108600500Y-107668247D01*
X108600500Y-106579765D01*
X108620185Y-106512726D01*
X108621398Y-106510874D01*
X108633808Y-106492302D01*
X108709394Y-106379179D01*
X108769737Y-106233497D01*
X108800500Y-106078842D01*
X108800500Y-105921158D01*
X108800500Y-105921155D01*
X108800499Y-105921153D01*
X108773379Y-105784814D01*
X108769737Y-105766503D01*
X108739171Y-105692710D01*
X108709397Y-105620827D01*
X108709390Y-105620814D01*
X108621789Y-105489711D01*
X108621786Y-105489707D01*
X108510292Y-105378213D01*
X108510288Y-105378210D01*
X108379185Y-105290609D01*
X108379172Y-105290602D01*
X108233501Y-105230264D01*
X108233489Y-105230261D01*
X108078845Y-105199500D01*
X108078842Y-105199500D01*
X107921158Y-105199500D01*
X107921155Y-105199500D01*
X107766510Y-105230261D01*
X107766498Y-105230264D01*
X107620827Y-105290602D01*
X107620814Y-105290609D01*
X107489711Y-105378210D01*
X107489707Y-105378213D01*
X107378213Y-105489707D01*
X107378210Y-105489711D01*
X107290609Y-105620814D01*
X107290602Y-105620827D01*
X107230264Y-105766498D01*
X107230261Y-105766510D01*
X107199500Y-105921153D01*
X99004482Y-105921153D01*
X98973387Y-105864207D01*
X98978371Y-105794515D01*
X99020243Y-105738582D01*
X99029457Y-105732310D01*
X99093656Y-105692712D01*
X99217712Y-105568656D01*
X99309814Y-105419334D01*
X99364999Y-105252797D01*
X99375500Y-105150009D01*
X99375499Y-104349992D01*
X99364999Y-104247203D01*
X99309814Y-104080666D01*
X99217712Y-103931344D01*
X99093656Y-103807288D01*
X98944334Y-103715186D01*
X98777797Y-103660001D01*
X98777795Y-103660000D01*
X98675010Y-103649500D01*
X97324998Y-103649500D01*
X97324981Y-103649501D01*
X97222203Y-103660000D01*
X97222200Y-103660001D01*
X97055668Y-103715185D01*
X97055663Y-103715187D01*
X96906342Y-103807289D01*
X96782289Y-103931342D01*
X96690187Y-104080663D01*
X96690186Y-104080666D01*
X96635001Y-104247203D01*
X96635001Y-104247204D01*
X96635000Y-104247204D01*
X96624500Y-104349983D01*
X92000500Y-104349983D01*
X92000500Y-97374500D01*
X92020185Y-97307461D01*
X92072989Y-97261706D01*
X92124500Y-97250500D01*
X98176906Y-97250500D01*
X98243945Y-97270185D01*
G37*
%TD.AperFunction*%
%TA.AperFunction,Conductor*%
G36*
X114404075Y-116442993D02*
G01*
X114469901Y-116557007D01*
X114562993Y-116650099D01*
X114677007Y-116715925D01*
X114740590Y-116732962D01*
X114108282Y-117365269D01*
X114108322Y-117365770D01*
X114093958Y-117434147D01*
X114044907Y-117483905D01*
X113984704Y-117499500D01*
X113289029Y-117499500D01*
X113221990Y-117479815D01*
X113176235Y-117427011D01*
X113166291Y-117357853D01*
X113195316Y-117294297D01*
X113208493Y-117281214D01*
X113209789Y-117280106D01*
X113209788Y-117280106D01*
X113209792Y-117280104D01*
X113360104Y-117129792D01*
X113360106Y-117129788D01*
X113360109Y-117129786D01*
X113445890Y-117011717D01*
X113485051Y-116957816D01*
X113489793Y-116948508D01*
X113537763Y-116897711D01*
X113605583Y-116880911D01*
X113671719Y-116903445D01*
X113710763Y-116948500D01*
X113715373Y-116957547D01*
X113754728Y-117011716D01*
X114387037Y-116379408D01*
X114404075Y-116442993D01*
G37*
%TD.AperFunction*%
%TA.AperFunction,Conductor*%
G36*
X115985270Y-117011717D02*
G01*
X115985270Y-117011716D01*
X116024622Y-116957555D01*
X116029232Y-116948507D01*
X116077205Y-116897709D01*
X116145025Y-116880912D01*
X116211161Y-116903447D01*
X116250204Y-116948504D01*
X116254949Y-116957817D01*
X116379890Y-117129786D01*
X116530210Y-117280106D01*
X116531507Y-117281214D01*
X116531862Y-117281758D01*
X116533653Y-117283549D01*
X116533276Y-117283925D01*
X116569698Y-117339723D01*
X116570193Y-117409591D01*
X116532836Y-117468635D01*
X116469488Y-117498110D01*
X116450971Y-117499500D01*
X115755296Y-117499500D01*
X115688257Y-117479815D01*
X115642502Y-117427011D01*
X115631678Y-117365772D01*
X115631717Y-117365270D01*
X114999408Y-116732962D01*
X115062993Y-116715925D01*
X115177007Y-116650099D01*
X115270099Y-116557007D01*
X115335925Y-116442993D01*
X115352962Y-116379408D01*
X115985270Y-117011717D01*
G37*
%TD.AperFunction*%
%TA.AperFunction,Conductor*%
G36*
X111479775Y-97270185D02*
G01*
X111525530Y-97322989D01*
X111530679Y-97352125D01*
X112170591Y-97992037D01*
X112107007Y-98009075D01*
X111992993Y-98074901D01*
X111899901Y-98167993D01*
X111834075Y-98282007D01*
X111817037Y-98345591D01*
X111184728Y-97713282D01*
X111184727Y-97713282D01*
X111145380Y-97767440D01*
X111145376Y-97767446D01*
X111140760Y-97776505D01*
X111092781Y-97827297D01*
X111024959Y-97844087D01*
X110958826Y-97821543D01*
X110919794Y-97776493D01*
X110915051Y-97767184D01*
X110915049Y-97767181D01*
X110915048Y-97767179D01*
X110790109Y-97595213D01*
X110657077Y-97462181D01*
X110623592Y-97400858D01*
X110628576Y-97331166D01*
X110670448Y-97275233D01*
X110735912Y-97250816D01*
X110744758Y-97250500D01*
X111412736Y-97250500D01*
X111479775Y-97270185D01*
G37*
%TD.AperFunction*%
%TA.AperFunction,Conductor*%
G36*
X113922281Y-97270185D02*
G01*
X113968036Y-97322989D01*
X113977980Y-97392147D01*
X113948955Y-97455703D01*
X113942923Y-97462181D01*
X113809894Y-97595209D01*
X113809890Y-97595213D01*
X113684949Y-97767182D01*
X113680202Y-97776499D01*
X113632227Y-97827293D01*
X113564405Y-97844087D01*
X113498271Y-97821548D01*
X113459234Y-97776495D01*
X113454626Y-97767452D01*
X113415270Y-97713282D01*
X113415269Y-97713282D01*
X112782962Y-98345590D01*
X112765925Y-98282007D01*
X112700099Y-98167993D01*
X112607007Y-98074901D01*
X112492993Y-98009075D01*
X112429409Y-97992037D01*
X113070673Y-97350771D01*
X113078009Y-97315852D01*
X113127060Y-97266095D01*
X113187263Y-97250500D01*
X113855242Y-97250500D01*
X113922281Y-97270185D01*
G37*
%TD.AperFunction*%
%TD*%
M02*
