M48
; DRILL file {KiCad 9.0.0} date 2025-04-10T19:53:03-0600
; FORMAT={-:-/ absolute / metric / decimal}
; #@! TF.CreationDate,2025-04-10T19:53:03-06:00
; #@! TF.GenerationSoftware,Kicad,Pcbnew,9.0.0
; #@! TF.FileFunction,Plated,1,2,PTH
FMAT,2
METRIC
; #@! TA.AperFunction,Plated,PTH,ViaDrill
T1C0.300
; #@! TA.AperFunction,Plated,PTH,ComponentDrill
T2C0.750
; #@! TA.AperFunction,Plated,PTH,ComponentDrill
T3C1.000
%
G90
G05
T1
X95.0Y-101.25
X97.5Y-101.25
X98.75Y-113.0
X101.25Y-110.75
X103.25Y-110.75
X103.837Y-102.25
X105.25Y-110.75
X105.25Y-112.75
X105.5Y-103.0
X108.0Y-106.0
X108.75Y-113.0
X109.669Y-109.637
X109.75Y-111.0
X110.0Y-107.85
X117.25Y-105.5
X118.25Y-107.9
X118.25Y-108.5
X122.25Y-102.75
X122.5Y-108.0
X122.75Y-111.25
T2
X98.2Y-102.75
X98.2Y-104.75
X98.2Y-106.75
T3
X94.55Y-116.25
X97.09Y-116.25
X99.6Y-98.475
X99.63Y-116.25
X102.14Y-98.475
X102.17Y-116.25
X104.68Y-98.475
X104.71Y-116.25
X107.22Y-98.475
X107.25Y-116.25
X109.76Y-98.475
X109.79Y-116.25
X112.3Y-98.475
X112.33Y-116.25
X114.84Y-98.475
X114.87Y-116.25
X117.38Y-98.475
X117.41Y-116.25
X119.92Y-98.475
X119.95Y-116.25
X122.46Y-98.475
X122.49Y-116.25
M30
