%TF.GenerationSoftware,KiCad,Pcbnew,9.0.0*%
%TF.CreationDate,2025-04-10T19:53:04-06:00*%
%TF.ProjectId,WakeCircuit,57616b65-4369-4726-9375-69742e6b6963,rev?*%
%TF.SameCoordinates,Original*%
%TF.FileFunction,Soldermask,Top*%
%TF.FilePolarity,Negative*%
%FSLAX46Y46*%
G04 Gerber Fmt 4.6, Leading zero omitted, Abs format (unit mm)*
G04 Created by KiCad (PCBNEW 9.0.0) date 2025-04-10 19:53:04*
%MOMM*%
%LPD*%
G01*
G04 APERTURE LIST*
G04 Aperture macros list*
%AMRoundRect*
0 Rectangle with rounded corners*
0 $1 Rounding radius*
0 $2 $3 $4 $5 $6 $7 $8 $9 X,Y pos of 4 corners*
0 Add a 4 corners polygon primitive as box body*
4,1,4,$2,$3,$4,$5,$6,$7,$8,$9,$2,$3,0*
0 Add four circle primitives for the rounded corners*
1,1,$1+$1,$2,$3*
1,1,$1+$1,$4,$5*
1,1,$1+$1,$6,$7*
1,1,$1+$1,$8,$9*
0 Add four rect primitives between the rounded corners*
20,1,$1+$1,$2,$3,$4,$5,0*
20,1,$1+$1,$4,$5,$6,$7,0*
20,1,$1+$1,$6,$7,$8,$9,0*
20,1,$1+$1,$8,$9,$2,$3,0*%
G04 Aperture macros list end*
%ADD10R,2.000000X1.300000*%
%ADD11R,2.000000X2.000000*%
%ADD12RoundRect,0.250000X-0.450000X-0.425000X0.450000X-0.425000X0.450000X0.425000X-0.450000X0.425000X0*%
%ADD13RoundRect,0.250000X-0.475000X0.250000X-0.475000X-0.250000X0.475000X-0.250000X0.475000X0.250000X0*%
%ADD14RoundRect,0.250000X0.450000X-0.262500X0.450000X0.262500X-0.450000X0.262500X-0.450000X-0.262500X0*%
%ADD15RoundRect,0.250000X0.300000X0.300000X-0.300000X0.300000X-0.300000X-0.300000X0.300000X-0.300000X0*%
%ADD16RoundRect,0.250000X0.262500X0.450000X-0.262500X0.450000X-0.262500X-0.450000X0.262500X-0.450000X0*%
%ADD17RoundRect,0.250000X0.475000X-0.250000X0.475000X0.250000X-0.475000X0.250000X-0.475000X-0.250000X0*%
%ADD18RoundRect,0.250000X-0.262500X-0.450000X0.262500X-0.450000X0.262500X0.450000X-0.262500X0.450000X0*%
%ADD19RoundRect,0.100000X0.637500X0.100000X-0.637500X0.100000X-0.637500X-0.100000X0.637500X-0.100000X0*%
%ADD20R,1.700000X1.700000*%
%ADD21O,1.700000X1.700000*%
%ADD22R,0.972299X0.508000*%
%ADD23RoundRect,0.250000X-0.625000X0.350000X-0.625000X-0.350000X0.625000X-0.350000X0.625000X0.350000X0*%
%ADD24O,1.750000X1.200000*%
G04 APERTURE END LIST*
D10*
%TO.C,RV1*%
X97266702Y-110708604D03*
D11*
X93266702Y-111858604D03*
D10*
X97266702Y-113008604D03*
%TD*%
D12*
%TO.C,C2*%
X113150000Y-105500000D03*
X115850000Y-105500000D03*
%TD*%
D13*
%TO.C,C3*%
X103250000Y-107800000D03*
X103250000Y-109700000D03*
%TD*%
D14*
%TO.C,R2*%
X105250000Y-109662500D03*
X105250000Y-107837500D03*
%TD*%
D15*
%TO.C,D1*%
X115900000Y-103250000D03*
X113100000Y-103250000D03*
%TD*%
D16*
%TO.C,R1*%
X102750000Y-102250000D03*
X100925000Y-102250000D03*
%TD*%
D17*
%TO.C,C4*%
X101250000Y-109700000D03*
X101250000Y-107800000D03*
%TD*%
D18*
%TO.C,R5*%
X119750000Y-111250000D03*
X121575000Y-111250000D03*
%TD*%
D19*
%TO.C,U3*%
X117000000Y-111800000D03*
X117000000Y-111150000D03*
X117000000Y-110500000D03*
X117000000Y-109850000D03*
X117000000Y-109200000D03*
X117000000Y-108550000D03*
X117000000Y-107900000D03*
X111275000Y-107900000D03*
X111275000Y-108550000D03*
X111275000Y-109200000D03*
X111275000Y-109850000D03*
X111275000Y-110500000D03*
X111275000Y-111150000D03*
X111275000Y-111800000D03*
%TD*%
D20*
%TO.C,J2*%
X99600000Y-98475000D03*
D21*
X102140000Y-98475000D03*
X104680000Y-98475000D03*
X107220000Y-98475000D03*
X109760000Y-98475000D03*
X112300000Y-98475000D03*
X114840000Y-98475000D03*
X117380000Y-98475000D03*
X119920000Y-98475000D03*
X122460000Y-98475000D03*
%TD*%
D14*
%TO.C,R4*%
X119000000Y-104662500D03*
X119000000Y-102837500D03*
%TD*%
D20*
%TO.C,J1*%
X94550000Y-116250000D03*
D21*
X97090000Y-116250000D03*
X99630000Y-116250000D03*
X102170000Y-116250000D03*
X104710000Y-116250000D03*
X107250000Y-116250000D03*
X109790000Y-116250000D03*
X112330000Y-116250000D03*
X114870000Y-116250000D03*
X117410000Y-116250000D03*
X119950000Y-116250000D03*
X122490000Y-116250000D03*
%TD*%
D22*
%TO.C,U1*%
X106637549Y-102050040D03*
X106637549Y-103000000D03*
X106637549Y-103949960D03*
X109362451Y-103949960D03*
X109362451Y-102050040D03*
%TD*%
D23*
%TO.C,J4*%
X98200000Y-102750000D03*
D24*
X98200000Y-104750000D03*
X98200000Y-106750000D03*
%TD*%
D18*
%TO.C,R3*%
X119587500Y-108000000D03*
X121412500Y-108000000D03*
%TD*%
D17*
%TO.C,C1*%
X121000000Y-104700000D03*
X121000000Y-102800000D03*
%TD*%
M02*
